<?xml version="1.0" encoding="UTF-8"?>
<svg width="30px" height="29px" viewBox="0 0 30 29" version="1.1" xmlns="http://www.w3.org/2000/svg" xmlns:xlink="http://www.w3.org/1999/xlink">
    <title>Path</title>
    <g id="Homepage" stroke="none" stroke-width="1" fill="none" fill-rule="evenodd">
        <g id="Laptop" transform="translate(-730.000000, -559.000000)" fill="#1B1F23">
            <g id="Stage" transform="translate(106.000000, 69.000000)">
                <g id="logo-github" transform="translate(624.000000, 490.000000)">
                    <path d="M15,0 C6.7125,0 0,6.65287542 0,14.8667607 C0,21.4453023 4.29375,27.0017542 10.25625,28.9716 C11.00625,29.1016841 11.2875,28.6556813 11.2875,28.2654288 C11.2875,27.9123433 11.26875,26.7415859 11.26875,25.4964946 C7.5,26.1840823 6.525,24.5859055 6.225,23.7496503 C6.05625,23.3222309 5.325,22.0028059 4.6875,21.6497203 C4.1625,21.3709685 3.4125,20.6833809 4.66875,20.6647974 C5.85,20.646214 6.69375,21.7426376 6.975,22.1886404 C8.325,24.4372379 10.48125,23.8054006 11.34375,23.4151481 C11.475,22.4488087 11.86875,21.7983879 12.3,21.4267189 C8.9625,21.0550499 5.475,19.7727918 5.475,14.0862558 C5.475,12.4694956 6.05625,11.1314871 7.0125,10.0908138 C6.8625,9.71914482 6.3375,8.19530185 7.1625,6.15112225 C7.1625,6.15112225 8.41875,5.76086978 11.2875,7.67496522 C12.4875,7.34046311 13.7625,7.17321205 15.0375,7.17321205 C16.3125,7.17321205 17.5875,7.34046311 18.7875,7.67496522 C21.65625,5.74228633 22.9125,6.15112225 22.9125,6.15112225 C23.7375,8.19530185 23.2125,9.71914482 23.0625,10.0908138 C24.01875,11.1314871 24.6,12.4509121 24.6,14.0862558 C24.6,19.7913752 21.09375,21.0550499 17.75625,21.4267189 C18.3,21.8913052 18.76875,22.7833108 18.76875,24.1770696 C18.76875,26.1654989 18.75,27.7636757 18.75,28.2654288 C18.75,28.6556813 19.03125,29.1202676 19.78125,28.9716 C25.70625,27.0017542 30,21.4267189 30,14.8667607 C30,6.65287542 23.2875,0 15,0 Z" id="Path"></path>
                </g>
            </g>
        </g>
    </g>
</svg>