<svg xmlns="http://www.w3.org/2000/svg" style="position:absolute;width:0;height:0;overflow:hidden"><symbol id="icon-github" viewBox="0 0 30 29"><title>github</title><path d="M15 0C6.713 0 0 6.653 0 14.867c0 6.578 4.294 12.135 10.256 14.105.75.13 1.031-.316 1.031-.707 0-.353-.018-1.523-.018-2.769-3.769.688-4.744-.91-5.044-1.746-.169-.428-.9-1.747-1.538-2.1-.525-.279-1.275-.967-.018-.985 1.181-.019 2.025 1.078 2.306 1.524 1.35 2.248 3.506 1.616 4.369 1.226.131-.966.525-1.617.956-1.988-3.337-.372-6.825-1.654-6.825-7.34 0-1.618.581-2.956 1.538-3.996-.15-.372-.675-1.896.15-3.94 0 0 1.256-.39 4.125 1.524 1.2-.335 2.475-.502 3.75-.502s2.55.167 3.75.502c2.868-1.933 4.125-1.524 4.125-1.524.825 2.044.3 3.568.15 3.94.956 1.04 1.537 2.36 1.537 3.995 0 5.705-3.506 6.969-6.844 7.34.544.465 1.013 1.357 1.013 2.751 0 1.988-.019 3.587-.019 4.088 0 .39.281.855 1.031.707C25.706 27.002 30 21.427 30 14.867 30 6.653 23.288 0 15 0Z" fill-rule="evenodd"/></symbol><symbol id="icon-instagram" viewBox="0 0 30 30"><title>instagram</title><g fill-rule="evenodd"><path d="M15 0c-4.074 0-4.585.017-6.184.09-1.597.073-2.687.327-3.642.698a7.352 7.352 0 0 0-2.656 1.73 7.352 7.352 0 0 0-1.73 2.656C.417 6.13.163 7.22.09 8.816.017 10.416 0 10.926 0 15s.017 4.585.09 6.184c.073 1.597.327 2.687.698 3.642a7.352 7.352 0 0 0 1.73 2.656 7.353 7.353 0 0 0 2.656 1.73c.955.371 2.045.625 3.642.698 1.6.073 2.11.09 6.184.09s4.585-.017 6.184-.09c1.597-.073 2.687-.327 3.642-.697a7.353 7.353 0 0 0 2.656-1.73 7.353 7.353 0 0 0 1.73-2.657c.371-.955.625-2.045.698-3.642.073-1.6.09-2.11.09-6.184s-.017-4.585-.09-6.184c-.073-1.597-.327-2.687-.697-3.642a7.353 7.353 0 0 0-1.73-2.656 7.352 7.352 0 0 0-2.657-1.73C23.87.417 22.78.163 21.184.09 19.584.017 19.074 0 15 0Zm0 2.703c4.005 0 4.48.015 6.061.087 1.463.067 2.257.311 2.786.517.7.272 1.2.597 1.724 1.122.525.525.85 1.024 1.122 1.724.206.529.45 1.323.517 2.786.072 1.581.087 2.056.087 6.061s-.015 4.48-.087 6.061c-.067 1.463-.311 2.257-.517 2.786-.272.7-.597 1.2-1.122 1.724a4.647 4.647 0 0 1-1.724 1.122c-.529.206-1.323.45-2.786.517-1.581.072-2.056.087-6.061.087s-4.48-.015-6.061-.087c-1.463-.067-2.257-.311-2.786-.517-.7-.272-1.2-.597-1.724-1.122a4.648 4.648 0 0 1-1.122-1.724c-.206-.529-.45-1.323-.517-2.786-.072-1.581-.087-2.056-.087-6.061s.015-4.48.087-6.061c.067-1.463.311-2.257.517-2.786.272-.7.597-1.2 1.122-1.724a4.647 4.647 0 0 1 1.724-1.122c.529-.206 1.323-.45 2.786-.517 1.581-.072 2.056-.087 6.061-.087Z"/><path d="M14.5 20.368a4.868 4.868 0 1 1 0-9.736 4.868 4.868 0 0 1 0 9.736ZM14.5 8a7.5 7.5 0 1 0 0 15 7.5 7.5 0 0 0 0-15ZM25 6.5a1.5 1.5 0 1 1-3 0 1.5 1.5 0 0 1 3 0"/></g></symbol><symbol id="icon-linkedin" viewBox="0 0 30 30"><title>linkedin</title><path d="M27.6 0H2.564C1.196 0 0 .985 0 2.337v25.092C0 28.789 1.196 30 2.563 30h25.03C28.968 30 30 28.78 30 27.429V2.337C30.008.985 28.968 0 27.6 0ZM9.3 25.007H5V11.644h4.3v13.363ZM7.298 9.612h-.032C5.891 9.612 5 8.588 5 7.307 5.001 6.002 5.916 5 7.322 5c1.407 0 2.266.993 2.298 2.306 0 1.281-.891 2.305-2.321 2.305Zm17.707 15.395h-4.298V17.7c0-1.75-.625-2.946-2.18-2.946-1.188 0-1.89.805-2.203 1.586-.118.282-.149.664-.149 1.055v7.612h-4.298V11.644h4.298v1.86c.625-.891 1.602-2.173 3.876-2.173 2.821 0 4.954 1.86 4.954 5.869v7.807Z"/></symbol><symbol id="icon-twitter" viewBox="0 0 35 28"><title>twitter</title><path d="M11.007 28c13.209 0 20.431-10.771 20.431-20.112 0-.306-.006-.61-.02-.913A14.477 14.477 0 0 0 35 3.315a14.496 14.496 0 0 1-4.124 1.112 7.114 7.114 0 0 0 3.158-3.91 14.54 14.54 0 0 1-4.56 1.716A7.226 7.226 0 0 0 24.232 0c-3.965 0-7.18 3.166-7.18 7.068 0 .554.062 1.094.185 1.611A20.497 20.497 0 0 1 2.436 1.294a6.966 6.966 0 0 0-.973 3.553c0 2.452 1.268 4.617 3.196 5.884a7.214 7.214 0 0 1-3.252-.884l-.001.09c0 3.423 2.475 6.281 5.76 6.93a7.297 7.297 0 0 1-3.242.12c.914 2.809 3.565 4.853 6.708 4.91a14.552 14.552 0 0 1-8.92 3.026c-.578 0-1.15-.033-1.712-.098A20.562 20.562 0 0 0 11.008 28"/></symbol></svg>