<svg xmlns="http://www.w3.org/2000/svg" style="position:absolute;width:0;height:0;overflow:hidden"><symbol id="logo-matthias" viewBox="0 0 119 1219"><title>logo-matthias</title><path d="m115.97 1182.517-77.12.161 20.77-8.694 56.35-24.31v-36.386l-56.35-24.311-20.448-8.694 20.448.16 56.35.162v-37.674H3.27v55.706l74.382 32.2-37.191 15.939-37.191 16.1v55.706h112.7v-36.064Zm0-185.955-21.092-11.27v-65.527l21.092-11.27v-44.919L3.27 928.781v44.92l112.7 65.043v-42.181Zm-44.114-64.4v40.894L33.055 952.61l38.8-20.447Zm44.114-168.728H29.835v-57.96H3.269v156.814h26.566V804.65h86.135v-41.216Zm0-161.966H29.835v-57.96H3.269v156.814h26.566v-57.638h86.135v-41.216Zm0-107.387H72.178V427.75h43.792v-41.216H3.27v41.216h42.182v66.332H3.27v41.216h112.7v-41.216Zm0-159.712H3.27v40.894h112.7V334.37Zm0-46.69-21.091-11.27v-65.527l21.09-11.27v-44.919L3.27 219.898v44.92l112.7 65.043V287.68Zm-44.114-64.4v40.894l-38.801-20.447 38.8-20.447Zm47.012-150.696C118.868 26.86 103.25.294 80.067.294c-28.98 0-31.717 39.445-33.971 70.68-1.61 20.768-2.737 37.995-11.27 37.995-5.474 0-10.304-7.889-10.304-28.819 0-20.447 6.44-34.454 16.905-37.835V2.227C15.827 8.023.37 36.52.37 81.439c0 44.275 15.456 69.874 38.48 69.874 28.818 0 32.038-36.87 33.97-67.62 1.45-22.219 2.254-41.217 11.27-41.217 5.957 0 10.948 9.016 10.948 31.395 0 21.092-5.957 33.166-17.227 36.709v41.698c26.082-6.278 41.055-34.292 41.055-79.694Z"/></symbol><symbol id="logo-rohmer" viewBox="0 0 119 964"><title>logo-rohmer</title><path d="M115.97 922.57H76.684v-48.46c0-9.016 2.898-12.88 11.592-13.202 13.524-.483 21.735-.966 27.692-3.542v-42.504c-6.923 3.38-17.388 4.669-30.912 5.474-11.43.644-18.193 5.796-21.09 16.905-4.992-13.041-14.974-20.125-28.015-20.125-20.769 0-32.683 17.549-32.683 47.817v98.854h112.7V922.57Zm-63.757-49.91v49.91H28.868v-49.91c0-9.498 4.186-14.972 11.753-14.972 7.406 0 11.592 5.635 11.592 14.973ZM119.19 727.6c0-47.978-23.827-82.593-59.57-82.593-35.742 0-59.57 34.615-59.57 82.593 0 48.3 23.828 82.754 59.57 82.754 35.742 0 59.57-34.454 59.57-82.754Zm-27.852 0c0 23.345-12.076 40.089-31.718 40.089s-31.716-16.744-31.716-40.09c0-23.023 12.075-39.767 31.717-39.767s31.717 16.744 31.717 39.767Zm24.632-132.343H72.178v-66.331h43.791V487.71H3.27v41.216h42.182v66.332H3.27v41.216h112.7v-41.216Zm0-154.72-77.118.16 20.768-8.693 56.35-24.311v-36.386l-56.35-24.311-20.447-8.694 20.448.16 56.35.162V300.95H3.27v55.706l74.382 32.2-37.191 15.939-37.191 16.1V476.6h112.7v-36.064Zm0-282.394H90.694v90.804h-19.32v-68.425H46.9v68.425H29.353v-90.804H3.27V289.84h112.7V158.143Zm0-50.393H76.686V59.289c0-9.016 2.897-12.88 11.591-13.202 13.524-.483 21.735-.966 27.692-3.542V.04c-6.923 3.382-17.388 4.67-30.912 5.475-11.43.644-18.193 5.796-21.09 16.905C58.974 9.379 48.992 2.295 35.951 2.295 15.183 2.295 3.27 19.844 3.27 50.112v98.853h112.7V107.75ZM52.214 57.84v49.91H28.867V57.84c0-9.5 4.186-14.973 11.753-14.973 7.406 0 11.592 5.635 11.592 14.973Z"/></symbol></svg>